<svg xmlns="http://www.w3.org/2000/svg" width="10" height="14" fill="none" xmlns:v="https://vecta.io/nano"><path d="M3.834 1.167C3.834.522 4.356 0 5.001 0s1.167.522 1.167 1.167a3.5 3.5 0 0 1 3.5 3.5c0 .644-.522 1.167-1.167 1.167s-1.167-.522-1.167-1.167S6.812 3.5 6.167 3.5H3.535a.87.87 0 0 0-.867.867c0 .373.239.705.593.823l4.218 1.406a3.2 3.2 0 0 1-1.012 6.237h-.299c0 .644-.522 1.167-1.167 1.167s-1.167-.522-1.167-1.167a3.5 3.5 0 0 1-3.5-3.5c0-.644.522-1.167 1.167-1.167s1.167.522 1.167 1.167S3.19 10.5 3.834 10.5h2.633a.87.87 0 0 0 .867-.867c0-.373-.239-.705-.593-.823L2.522 7.404A3.2 3.2 0 0 1 .334 4.367a3.2 3.2 0 0 1 3.201-3.201h.299z" fill="#fcfcfd"/></svg>