<svg xmlns="http://www.w3.org/2000/svg" width="65" height="64" fill="#808191" fill-rule="evenodd" xmlns:v="https://vecta.io/nano"><path d="M53.835 13.333H11.168A2.67 2.67 0 0 0 8.501 16v32a2.67 2.67 0 0 0 2.667 2.667h42.667A2.67 2.67 0 0 0 56.502 48V16a2.67 2.67 0 0 0-2.667-2.667zM11.168 8a8 8 0 0 0-8 8v32a8 8 0 0 0 8 8h42.667a8 8 0 0 0 8-8V16a8 8 0 0 0-8-8H11.168zm3.282 11.626a2.67 2.67 0 0 1 3.756-.341l12.586 10.488c.989.824 2.425.824 3.414 0l12.586-10.488a2.67 2.67 0 0 1 3.756.341c.943 1.131.79 2.813-.342 3.756L37.62 33.869a8 8 0 0 1-10.243 0L14.792 23.381a2.67 2.67 0 0 1-.341-3.756z"/></svg>