<svg width="54" height="64" viewBox="0 0 54 64" fill="none" xmlns="http://www.w3.org/2000/svg">
<path d="M3.17348 0.567623C1.88277 1.26084 0.862993 2.5382 0.354323 4.11505L1.30603 4.42206C1.10922 5.03215 1 5.69884 1 6.4V9.59999H0V16H1V22.4H0V28.8H1V35.2H0V41.6H1V48H0V54.4H1V57.6C1 58.3012 1.10922 58.9678 1.30603 59.5779L0.354323 59.8849C0.862992 61.4618 1.88276 62.7392 3.17348 63.4324L3.64663 62.5514C4.18812 62.8422 4.78024 63 5.4 63H8.1V64H13.5V63H18.9V64H24.3V63H29.7V64H35.1V63H40.5V64H45.9V63H48.6C49.2198 63 49.8119 62.8422 50.3534 62.5514L50.8265 63.4324C52.1172 62.7392 53.137 61.4618 53.6457 59.8849L52.694 59.5779C52.8908 58.9678 53 58.3012 53 57.6V54.4H54V48H53V41.6H54V35.2H53V28.8H54V22.4H53V16H54V9.6H53V6.4C53 5.69884 52.8908 5.03215 52.694 4.42206L53.6457 4.11505C53.137 2.5382 52.1172 1.26084 50.8265 0.567623L50.3534 1.4486C49.8119 1.15778 49.2198 1 48.6 1H45.9V0H40.5V1H35.1V0H29.7V1H24.3V0H18.9V1H13.5V0H8.1V1H5.4C4.78025 1 4.18812 1.15778 3.64663 1.4486L3.17348 0.567623Z" stroke="#808191" stroke-width="2" stroke-linejoin="round" stroke-dasharray="6 6"/>
<path fill-rule="evenodd" clip-rule="evenodd" d="M8.10156 50.6398C8.10156 53.1583 9.8242 55.2 11.9492 55.2H42.7302C44.8552 55.2 46.5778 53.1583 46.5778 50.6398V14.1586C46.5778 11.6401 44.8552 9.59848 42.7302 9.59848H11.9492C9.8242 9.59848 8.10156 11.6401 8.10156 14.1586V50.6398Z" fill="#808191"/>
</svg>
