<svg xmlns="http://www.w3.org/2000/svg" width="33" height="33" fill="#ffa2c0" fill-rule="evenodd" xmlns:v="https://vecta.io/nano"><path d="M16.499 5.834A10.67 10.67 0 0 1 27.166 16.5a10.67 10.67 0 0 1-10.667 10.667A10.67 10.67 0 0 1 5.833 16.5 10.67 10.67 0 0 1 16.499 5.834zm0-2.667c7.364 0 13.333 5.97 13.333 13.333s-5.97 13.333-13.333 13.333S3.166 23.864 3.166 16.5 9.136 3.167 16.499 3.167zm0 20c-.736 0-1.333-.597-1.333-1.333s.597-1.333 1.333-1.333 1.333.597 1.333 1.333-.597 1.333-1.333 1.333zm0-5.333c-.736 0-1.333-.597-1.333-1.333v-5.333c0-.736.597-1.333 1.333-1.333s1.333.597 1.333 1.333V16.5c0 .736-.597 1.333-1.333 1.333z"/></svg>