<svg xmlns="http://www.w3.org/2000/svg" width="32" height="14" fill="#fcfcfd" xmlns:v="https://vecta.io/nano"><path d="M3.5 1.167C3.5.522 4.022 0 4.667 0s1.167.522 1.167 1.167a3.5 3.5 0 0 1 3.5 3.5c0 .644-.522 1.167-1.167 1.167S7 5.311 7 4.667 6.478 3.5 5.833 3.5H3.201a.87.87 0 0 0-.867.867.87.87 0 0 0 .593.823l4.218 1.406a3.2 3.2 0 0 1-1.012 6.237h-.299c0 .644-.522 1.167-1.167 1.167S3.5 13.477 3.5 12.833a3.5 3.5 0 0 1-3.5-3.5c0-.644.522-1.167 1.167-1.167s1.167.522 1.167 1.167S2.856 10.5 3.5 10.5h2.633A.87.87 0 0 0 7 9.633a.87.87 0 0 0-.593-.823L2.188 7.404A3.2 3.2 0 0 1 3.2 1.167h.3zm11.334 0c0-.644.522-1.167 1.167-1.167s1.167.522 1.167 1.167a3.5 3.5 0 0 1 3.5 3.5c0 .644-.522 1.167-1.167 1.167s-1.167-.522-1.167-1.167S17.812 3.5 17.167 3.5h-2.633a.87.87 0 0 0-.867.867.87.87 0 0 0 .593.823l4.218 1.406a3.2 3.2 0 0 1-1.012 6.237h-.299c0 .644-.522 1.167-1.167 1.167s-1.167-.522-1.167-1.167a3.5 3.5 0 0 1-3.5-3.5c0-.644.522-1.167 1.167-1.167s1.167.522 1.167 1.167.522 1.167 1.167 1.167h2.633a.87.87 0 0 0 .867-.867.87.87 0 0 0-.593-.823l-4.218-1.406a3.2 3.2 0 0 1 1.012-6.237h.299zm11.332 0c0-.644.522-1.167 1.167-1.167S28.5.522 28.5 1.167a3.5 3.5 0 0 1 3.5 3.5c0 .644-.522 1.167-1.167 1.167s-1.167-.522-1.167-1.167S29.144 3.5 28.499 3.5h-2.633a.87.87 0 0 0-.867.867.87.87 0 0 0 .593.823l4.218 1.406a3.2 3.2 0 0 1-1.012 6.237h-.299c0 .644-.522 1.167-1.167 1.167s-1.167-.522-1.167-1.167a3.5 3.5 0 0 1-3.5-3.5c0-.644.522-1.167 1.167-1.167s1.167.522 1.167 1.167.522 1.167 1.167 1.167h2.633a.87.87 0 0 0 .867-.867.87.87 0 0 0-.593-.823l-4.218-1.406a3.2 3.2 0 0 1 1.012-6.237h.299z"/></svg>