<svg xmlns="http://www.w3.org/2000/svg" width="17" height="17" fill="#808191"  xmlns:v="https://vecta.io/nano"><path fill-rule="evenodd" d="M8.5 13.834c2.946 0 5.333-2.388 5.333-5.333S11.445 3.167 8.5 3.167 3.166 5.555 3.166 8.5s2.388 5.333 5.333 5.333zm0 1.333A6.67 6.67 0 0 0 15.166 8.5 6.67 6.67 0 0 0 8.5 1.834 6.67 6.67 0 0 0 1.833 8.5 6.67 6.67 0 0 0 8.5 15.167z"/><path d="M8.5 7.167c0-.368.298-.667.667-.667h.667c.368 0 .667-.298.667-.667s-.299-.667-.667-.667h-.667a2 2 0 0 0-2 2V8.5H6.5c-.368 0-.667.298-.667.667s.298.667.667.667h.667v4c0 .368.298.667.667.667s.667-.298.667-.667v-4h1.333c.368 0 .667-.298.667-.667s-.299-.667-.667-.667H8.5V7.167z"/></svg>