<svg xmlns="http://www.w3.org/2000/svg" width="16" height="16" fill="#fcfcfd" fill-rule="evenodd" xmlns:v="https://vecta.io/nano"><path d="M1.333 10.667c-.368 0-.667.298-.667.667s.298.667.667.667h7.333c.368 0 .667-.299.667-.667s-.298-.667-.667-.667H1.333zm11.333 0c-.368 0-.667.298-.667.667s.298.667.667.667h2c.368 0 .667-.299.667-.667s-.298-.667-.667-.667h-2z"/><path d="M10.667 12.667c.736 0 1.333-.597 1.333-1.333S11.403 10 10.667 10s-1.333.597-1.333 1.333.597 1.333 1.333 1.333zm0 1.333a2.67 2.67 0 0 0 2.667-2.667 2.67 2.67 0 0 0-2.667-2.667A2.67 2.67 0 0 0 8 11.333 2.67 2.67 0 0 0 10.667 14zM1.333 4c-.368 0-.667.298-.667.667s.298.667.667.667h2c.368 0 .667-.298.667-.667S3.701 4 3.333 4h-2zm6 0c-.368 0-.667.298-.667.667s.298.667.667.667h7.333c.368 0 .667-.298.667-.667S15.035 4 14.667 4H7.333z"/><path d="M5.333 6c.736 0 1.333-.597 1.333-1.333S6.07 3.333 5.333 3.333 4 3.93 4 4.667 4.597 6 5.333 6zm0 1.333C6.806 7.333 8 6.139 8 4.667S6.806 2 5.333 2 2.667 3.194 2.667 4.667 3.86 7.333 5.333 7.333z"/></svg>