<svg xmlns="http://www.w3.org/2000/svg" width="86" height="86" fill="#808191"  xmlns:v="https://vecta.io/nano"><path fill-rule="evenodd" d="M43 14.333c-6.995 0-13.444.577-18.62 1.261-4.658.615-8.171 4.128-8.786 8.786-.684 5.176-1.261 11.625-1.261 18.62s.577 13.444 1.261 18.62c.615 4.658 4.128 8.171 8.786 8.786 5.176.684 11.625 1.26 18.62 1.26s13.444-.577 18.62-1.26c4.658-.615 8.171-4.128 8.786-8.786.684-5.176 1.261-11.625 1.261-18.62s-.577-13.444-1.261-18.62c-.615-4.658-4.128-8.171-8.786-8.786-5.176-.684-11.625-1.261-18.62-1.261zM23.442 8.489C15.57 9.528 9.529 15.57 8.489 23.441 7.774 28.853 7.167 35.623 7.167 43s.607 14.147 1.322 19.558c1.04 7.872 7.081 13.913 14.953 14.953 5.412.715 12.181 1.322 19.558 1.322s14.147-.608 19.558-1.322c7.872-1.04 13.913-7.081 14.953-14.953.715-5.412 1.322-12.181 1.322-19.559s-.607-14.147-1.322-19.558c-1.04-7.872-7.081-13.913-14.953-14.953C57.147 7.774 50.377 7.167 43 7.167s-14.147.607-19.558 1.322z"/><path d="M32.252 39.417a7.17 7.17 0 0 0 7.167-7.167 7.17 7.17 0 0 0-7.167-7.167 7.17 7.17 0 0 0-7.167 7.167 7.17 7.17 0 0 0 7.167 7.167zm32.684 6.118l6.43 6.43-.903 9.232-10.594-10.594c-1.399-1.399-3.668-1.399-5.068 0l-7.781 7.781c-4.198 4.198-11.005 4.198-15.203 0l-.615-.615c-1.399-1.399-3.668-1.399-5.068 0l-8.632 8.632c-1-1.356-1.669-2.983-1.907-4.781l-.374-3.074 5.845-5.845c4.198-4.198 11.005-4.198 15.203 0l.615.615c1.399 1.399 3.668 1.399 5.068 0l7.781-7.782c4.198-4.198 11.005-4.198 15.203 0z"/></svg>