<svg xmlns="http://www.w3.org/2000/svg" width="17" height="17" fill="#808191"  xmlns:v="https://vecta.io/nano"><path fill-rule="evenodd" d="M11.166 3.167H5.833c-1.473 0-2.667 1.194-2.667 2.667v5.333c0 1.473 1.194 2.667 2.667 2.667h5.333c1.473 0 2.667-1.194 2.667-2.667V5.834c0-1.473-1.194-2.667-2.667-2.667zM5.833 1.834a4 4 0 0 0-4 4v5.333a4 4 0 0 0 4 4h5.333a4 4 0 0 0 4-4V5.834a4 4 0 0 0-4-4H5.833z"/><path d="M11.834 5.833c.368 0 .667-.298.667-.667s-.298-.667-.667-.667-.667.298-.667.667.299.667.667.667z"/><path fill-rule="evenodd" d="M11.834 8.5c0 1.841-1.492 3.333-3.333 3.333S5.167 10.341 5.167 8.5 6.659 5.167 8.5 5.167s3.333 1.492 3.333 3.333zm-1.333 0a2 2 0 0 1-4 0 2 2 0 0 1 4 0z"/></svg>