<svg xmlns="http://www.w3.org/2000/svg" width="72" height="72" fill="none" xmlns:v="https://vecta.io/nano"><path fill-rule="evenodd" d="M3.759 58.842l-2.766.713a1.29 1.29 0 0 0-.944.93c-.128.47-.005.934.339 1.278l9.848 9.848c.344.344.809.467 1.278.339s.809-.472.93-.941l.713-2.768 13.881-8.453 3.056 4.997c.662 1.081 1.704 1.792 2.847 2.066s2.401.114 3.486-.553l9.269-5.683a4.91 4.91 0 0 0 2.215-3.052 4.94 4.94 0 0 0-.59-3.737l-2.854-4.653 15.912-9.69a1.27 1.27 0 0 0 .623-.967c.051-.416-.081-.795-.377-1.09L34.574 11.373a1.28 1.28 0 0 0-1.088-.377 1.27 1.27 0 0 0-.969.623L3.759 58.842zm37.909-7.961l-11.826 7.201 3.047 4.983a1.33 1.33 0 0 0 .825.593 1.31 1.31 0 0 0 .995-.153l9.269-5.683c.386-.237.642-.614.741-1.032s.042-.86-.191-1.243l-2.861-4.665zm-17.355 5.892l1.539-1.539-9.785-9.785-1.539 1.539 9.785 9.785zm-.611-21.197l-2.717 2.717 11.742 11.742 1.846-1.843-4.412-4.414.872-.872c1.846-1.846 1.727-3.775-.151-5.653l-1.527-1.527c-1.878-1.878-3.807-1.996-5.653-.151zm1.678 1.678c.586-.588 1.174-.637 2.013.2l1.762 1.762c.839.839.788 1.427.2 2.013l-.872.874-3.975-3.977.872-.872zm9.276-8.363c-.955-.955-.897-1.739-.228-2.408s1.45-.725 2.406.23l7.222 7.222c.955.955.899 1.739.23 2.406s-1.453.728-2.408-.228l-7.221-7.222zm4.988 9.188c2.138 2.141 4.488 2.236 6.552.172s1.969-4.411-.172-6.552l-6.954-6.954c-2.138-2.141-4.488-2.236-6.552-.172s-1.969 4.414.172 6.552l6.954 6.954zm3.284-26.109c-.753.095-1.441-.439-1.536-1.192s.439-1.439 1.192-1.534c2.61-.337 5.304.005 7.847.941 2.529.93 4.916 2.443 6.929 4.456s3.528 4.4 4.458 6.929c.934 2.543 1.276 5.237.939 7.849-.093.751-.781 1.285-1.534 1.19s-1.288-.783-1.192-1.536c.279-2.162-.012-4.411-.799-6.554-.793-2.155-2.09-4.195-3.821-5.927s-3.772-3.029-5.927-3.821c-2.143-.788-4.393-1.078-6.555-.8zm-.207-9.223c-.758-.002-1.371-.621-1.369-1.378S41.973-.002 42.733 0a29.36 29.36 0 0 1 20.651 8.616A29.36 29.36 0 0 1 72 29.27c.002.758-.609 1.376-1.369 1.378s-1.376-.609-1.378-1.369c-.042-7.303-3.022-13.913-7.819-18.711a26.6 26.6 0 0 0-18.713-7.821z" fill="#808191"/></svg>