<svg xmlns="http://www.w3.org/2000/svg" width="33" height="32" fill="none" xmlns:v="https://vecta.io/nano"><g clip-path="url(#A)"><path d="M16.5 0c8.837 0 16 7.163 16 16s-7.163 16-16 16-16-7.163-16-16 7.163-16 16-16zm0 3.2C9.431 3.2 3.7 8.931 3.7 16s5.731 12.8 12.8 12.8S29.3 23.069 29.3 16 23.569 3.2 16.5 3.2zm3.29 6.982a.39.39 0 0 1 .374.312l.01.093v1.508c0 .191-.127.352-.296.394l-.088.011h-.756l1.761 4.295 1.761-4.295h-.762c-.182 0-.334-.133-.374-.312l-.01-.093v-1.508c0-.191.126-.352.296-.394l.088-.011h3.943c.147 0 .261.053.319.148.044.072.054.163.031.263l-.034.103-4.706 10.846c-.133.324-.316.429-.466.453L20.81 22h-.036c-.138 0-.324-.058-.479-.314l-.074-.145-4.691-10.838c-.076-.192-.042-.311 0-.377.033-.053.097-.113.22-.136l.103-.009h3.937zM12.254 10c.192 0 .342.091.446.272l.057.119 4.698 10.912c.064.139.066.27.007.369-.044.074-.118.123-.213.143l-.102.01h-3.942a.39.39 0 0 1-.374-.312l-.01-.093v-1.508c0-.191.127-.352.296-.394l.088-.011h.806l-1.807-4.652-1.809 4.652h.805a.39.39 0 0 1 .374.312l.01.093v1.508c0 .191-.127.352-.296.394l-.088.011H8.886v-.008H7.268c-.191 0-.281-.08-.323-.147-.034-.054-.062-.141-.033-.269l.033-.104 4.684-10.915c.091-.212.226-.336.405-.372l.112-.011h.108z" fill="#808191"/></g><defs><clipPath id="A"><path fill="#fff" transform="translate(.5)" d="M0 0h32v32H0z"/></clipPath></defs></svg>