<svg xmlns="http://www.w3.org/2000/svg" width="177" height="24" fill="none"  xmlns:v="https://vecta.io/nano"><g fill-rule="evenodd"><path d="M.67 4.3a.67.67 0 0 0-.67.67v17.832a.67.67 0 0 0 .67.67h3.112a.67.67 0 0 0 .67-.67v-5.253h4.493c.514 0 .832-.29.832-.758v-2.337c0-.49-.311-.782-.832-.782H4.451V8.526h8.942a.67.67 0 0 0 .667-.667V4.967c0-.369-.299-.667-.667-.667H.67zm58.282 7.555c0 1.085-.352 1.987-1.046 2.681-.707.695-1.618 1.047-2.707 1.047h-3.103V8.202h3.103c1.093 0 1.974.339 2.695 1.035.712.7 1.058 1.557 1.058 2.619zm4.439.013c0-2.179-.754-4.005-2.241-5.43C59.668 5.019 57.759 4.3 55.474 4.3h-7.098a.71.71 0 0 0-.733.72v17.731c0 .418.315.733.733.733h2.961c.432 0 .758-.315.758-.733V19.31h3.378l.83-.032 1.782 3.611c.154.35.488.594.812.594h3.374c.258 0 .453-.092.55-.258s.079-.389-.053-.62l-2.471-4.709c1.968-1.35 3.095-3.543 3.095-6.029zm14.101-.013c0 1.085-.352 1.987-1.046 2.681-.707.695-1.617 1.047-2.707 1.047h-3.104V8.202h3.104c1.093 0 1.974.339 2.695 1.035.712.7 1.058 1.557 1.058 2.619zm1.344 6.042c1.968-1.35 3.095-3.543 3.095-6.029 0-2.179-.754-4.005-2.241-5.43C78.208 5.019 76.298 4.3 74.014 4.3h-7.097a.71.71 0 0 0-.733.72v17.731c0 .418.315.733.733.733h2.961c.432 0 .758-.315.758-.733V19.31h3.379l.831-.032 1.781 3.611c.154.35.488.594.812.594h3.374c.258 0 .453-.092.549-.258s.079-.389-.053-.62l-2.471-4.709z" fill="#fff"/><path d="M30.315 22.636l-8.171-17.99c-.18-.429-.474-.646-.875-.646h-.188c-.407 0-.71.212-.899.631l-8.148 17.995c-.132.307-.072.504.001.615s.23.243.562.243h2.813v.012h4.025a.67.67 0 0 0 .667-.668v-2.485a.67.67 0 0 0-.667-.668h-1.4l3.146-7.669 3.142 7.669h-1.401a.67.67 0 0 0-.668.668v2.485a.67.67 0 0 0 .668.668h6.856c.252 0 .448-.089.549-.252s.098-.379-.013-.608zM45.388 4.245C45.287 4.087 45.09 4 44.834 4h-6.858a.67.67 0 0 0-.667.667v2.485a.67.67 0 0 0 .667.667H39.3L36.236 14.9l-3.064-7.081h1.315a.67.67 0 0 0 .668-.667V4.667A.67.67 0 0 0 34.488 4H27.64c-.333 0-.489.129-.562.238s-.132.305 0 .622l8.16 17.868c.287.624.681.755.961.755h.062c.278 0 .666-.131.936-.755l8.185-17.881c.105-.231.107-.445.006-.602z" fill="#00dff7"/></g><path d="M91.258 6.545h.386l1.261-2.847v2.847h.727V2.364h-.886l-1.295 3.068-1.295-3.068h-.886v4.182h.727V3.699l1.261 2.847zm-4.716 0h.727V3h1.273v-.636h-3.273V3h1.273v3.545z" fill="#fff"/><g fill="#808191"><rect x="103" width="2" height="24" rx="1"/><path d="M124.712 6.528v11.12h-1.84V9.312l-3.216 8.336h-1.6l-3.232-8.336v8.336H113V6.528h2.208l3.68 8.88 3.616-8.88h2.208zm8.93 8.672h-4.768l-.864 2.448h-1.952l4.16-11.12h2.096l4.144 11.12h-1.952l-.864-2.448zm-.512-1.408l-1.872-5.28-1.872 5.28h3.744zm10.619 3.856l-2.817-4.512h-1.296v4.512h-1.824V6.352h3.985c1.29 0 2.266.315 2.927.944.672.629 1.009 1.461 1.009 2.496 0 .885-.251 1.611-.753 2.176-.49.565-1.205.928-2.143 1.088l2.96 4.592h-2.048zm-4.113-5.808h2.017c1.472 0 2.208-.651 2.208-1.952 0-.619-.182-1.099-.545-1.44-.351-.352-.906-.528-1.663-.528h-2.017v3.92zm11.275.096l4.976 5.712h-2.224l-4.464-5.232v5.232h-1.824V6.352h1.824v5.168l4.48-5.168h2.208l-4.976 5.584zm8.163-4.112v3.424h4.16v1.408h-4.16v3.504h4.64v1.488h-6.464V6.352h6.464v1.472h-4.64zm13.674-1.472v1.472h-3.152v9.824h-1.84V7.824h-3.136V6.352h8.128z"/></g></svg>