<svg width="44" height="44" viewBox="0 0 44 44" fill="none" xmlns="http://www.w3.org/2000/svg">
<path d="M37.8547 4.90283L24.1133 15.1087L26.6544 9.08739L37.8547 4.90283Z" fill="#E2761B" stroke="#E2761B" stroke-linecap="round" stroke-linejoin="round"/>
<path d="M6.13281 4.90283L19.7637 15.2054L17.3469 9.08739L6.13281 4.90283Z" fill="#E4761B" stroke="#E4761B" stroke-linecap="round" stroke-linejoin="round"/>
<path d="M32.9137 28.5601L29.2539 34.1671L37.0844 36.3215L39.3355 28.6844L32.9137 28.5601Z" fill="#E4761B" stroke="#E4761B" stroke-linecap="round" stroke-linejoin="round"/>
<path d="M4.68359 28.6844L6.92088 36.3215L14.7514 34.1671L11.0916 28.5601L4.68359 28.6844Z" fill="#E4761B" stroke="#E4761B" stroke-linecap="round" stroke-linejoin="round"/>
<path d="M14.311 19.0863L12.1289 22.387L19.9042 22.7323L19.628 14.377L14.311 19.0863Z" fill="#E4761B" stroke="#E4761B" stroke-linecap="round" stroke-linejoin="round"/>
<path d="M29.6789 19.0863L24.2928 14.2803L24.1133 22.7322L31.8747 22.387L29.6789 19.0863Z" fill="#E4761B" stroke="#E4761B" stroke-linecap="round" stroke-linejoin="round"/>
<path d="M14.75 34.1667L19.4179 31.888L15.3853 28.7393L14.75 34.1667Z" fill="#E4761B" stroke="#E4761B" stroke-linecap="round" stroke-linejoin="round"/>
<path d="M24.5703 31.888L29.252 34.1667L28.603 28.7393L24.5703 31.888Z" fill="#E4761B" stroke="#E4761B" stroke-linecap="round" stroke-linejoin="round"/>
<path d="M29.252 34.1669L24.5703 31.8882L24.9432 34.9403L24.9018 36.2247L29.252 34.1669Z" fill="#D7C1B3" stroke="#D7C1B3" stroke-linecap="round" stroke-linejoin="round"/>
<path d="M14.75 34.1669L19.1003 36.2247L19.0727 34.9403L19.4179 31.8882L14.75 34.1669Z" fill="#D7C1B3" stroke="#D7C1B3" stroke-linecap="round" stroke-linejoin="round"/>
<path d="M19.168 26.7233L15.2734 25.5771L18.0217 24.3203L19.168 26.7233Z" fill="#233447" stroke="#233447" stroke-linecap="round" stroke-linejoin="round"/>
<path d="M24.8164 26.7233L25.9627 24.3203L28.7248 25.5771L24.8164 26.7233Z" fill="#233447" stroke="#233447" stroke-linecap="round" stroke-linejoin="round"/>
<path d="M14.7496 34.1671L15.4125 28.5601L11.0898 28.6844L14.7496 34.1671Z" fill="#CD6116" stroke="#CD6116" stroke-linecap="round" stroke-linejoin="round"/>
<path d="M28.5859 28.5601L29.2488 34.1671L32.9086 28.6844L28.5859 28.5601Z" fill="#CD6116" stroke="#CD6116" stroke-linecap="round" stroke-linejoin="round"/>
<path d="M31.8747 22.3867L24.1133 22.732L24.8314 26.7232L25.9777 24.3202L28.7398 25.5769L31.8747 22.3867Z" fill="#CD6116" stroke="#CD6116" stroke-linecap="round" stroke-linejoin="round"/>
<path d="M15.2738 25.5769L18.0359 24.3202L19.1683 26.7232L19.9003 22.732L12.125 22.3867L15.2738 25.5769Z" fill="#CD6116" stroke="#CD6116" stroke-linecap="round" stroke-linejoin="round"/>
<path d="M12.125 22.3867L15.3843 28.7395L15.2738 25.5769L12.125 22.3867Z" fill="#E4751F" stroke="#E4751F" stroke-linecap="round" stroke-linejoin="round"/>
<path d="M28.7397 25.5769L28.6016 28.7395L31.8746 22.3867L28.7397 25.5769Z" fill="#E4751F" stroke="#E4751F" stroke-linecap="round" stroke-linejoin="round"/>
<path d="M19.8999 22.7319L19.168 26.7231L20.0795 31.4325L20.2866 25.2316L19.8999 22.7319Z" fill="#E4751F" stroke="#E4751F" stroke-linecap="round" stroke-linejoin="round"/>
<path d="M24.1112 22.7319L23.7383 25.2178L23.904 31.4325L24.8293 26.7231L24.1112 22.7319Z" fill="#E4751F" stroke="#E4751F" stroke-linecap="round" stroke-linejoin="round"/>
<path d="M24.8315 26.7229L23.9062 31.4323L24.5691 31.888L28.6018 28.7393L28.7399 25.5767L24.8315 26.7229Z" fill="#F6851B" stroke="#F6851B" stroke-linecap="round" stroke-linejoin="round"/>
<path d="M15.2734 25.5767L15.3839 28.7393L19.4166 31.888L20.0795 31.4323L19.168 26.7229L15.2734 25.5767Z" fill="#F6851B" stroke="#F6851B" stroke-linecap="round" stroke-linejoin="round"/>
<path d="M24.9007 36.2247L24.9421 34.9404L24.5968 34.6365H19.3903L19.0727 34.9404L19.1003 36.2247L14.75 34.167L16.2691 35.4099L19.3489 37.5505H24.6383L27.7318 35.4099L29.2509 34.167L24.9007 36.2247Z" fill="#C0AD9E" stroke="#C0AD9E" stroke-linecap="round" stroke-linejoin="round"/>
<path d="M24.5669 31.8884L23.904 31.4326H20.0785L19.4156 31.8884L19.0703 34.9405L19.388 34.6366H24.5945L24.9397 34.9405L24.5669 31.8884Z" fill="#161616" stroke="#161616" stroke-linecap="round" stroke-linejoin="round"/>
<path d="M38.4321 15.7716L39.606 10.137L37.852 4.90283L24.5664 14.7635L29.6763 19.0861L36.8991 21.1991L38.5011 19.3347L37.8106 18.8375L38.9154 17.8294L38.0592 17.1665L39.164 16.3241L38.4321 15.7716Z" fill="#763D16" stroke="#763D16" stroke-linecap="round" stroke-linejoin="round"/>
<path d="M4.39062 10.137L5.56451 15.7716L4.81875 16.3241L5.92358 17.1665L5.08115 17.8294L6.18598 18.8375L5.49546 19.3347L7.08366 21.1991L14.3065 19.0861L19.4164 14.7635L6.13074 4.90283L4.39062 10.137Z" fill="#763D16" stroke="#763D16" stroke-linecap="round" stroke-linejoin="round"/>
<path d="M36.9016 21.1989L29.6788 19.0859L31.8746 22.3866L28.6016 28.7394L32.9104 28.6842H39.3323L36.9016 21.1989Z" fill="#F6851B" stroke="#F6851B" stroke-linecap="round" stroke-linejoin="round"/>
<path d="M14.3095 19.0859L7.08661 21.1989L4.68359 28.6842H11.0916L15.3867 28.7394L12.1274 22.3866L14.3095 19.0859Z" fill="#F6851B" stroke="#F6851B" stroke-linecap="round" stroke-linejoin="round"/>
<path d="M24.1148 22.7321L24.5705 14.7635L26.6697 9.0874H17.3477L19.4192 14.7635L19.9026 22.7321L20.0683 25.2456L20.0821 31.4327H23.9076L23.9352 25.2456L24.1148 22.7321Z" fill="#F6851B" stroke="#F6851B" stroke-linecap="round" stroke-linejoin="round"/>
</svg>
