<svg xmlns="http://www.w3.org/2000/svg" width="74" height="72" fill="none" xmlns:v="https://vecta.io/nano"><path d="M66.495 0H7.502C3.902 0 .998 2.903.998 6.503v58.994c0 3.6 2.903 6.503 6.503 6.503h58.994c3.6 0 6.503-2.903 6.503-6.503V6.619C73.114 3.019 70.095 0 66.495 0zm-52.49 16.49c0-.929.697-1.626 1.626-1.626h16.374c.929 0 1.626.697 1.626 1.626v16.374c0 .929-.697 1.626-1.626 1.626H15.631c-.929 0-1.626-.697-1.626-1.626V16.49zM53.373 59.11c0 .929-.697 1.626-1.626 1.626H15.631c-.929 0-1.626-.697-1.626-1.626v-3.252c0-.929.697-1.626 1.626-1.626h36.116c.929 0 1.626.697 1.626 1.626v3.252zm6.619-13.123c0 .929-.697 1.626-1.626 1.626H15.631c-.929 0-1.626-.697-1.626-1.626v-3.252c0-.929.697-1.626 1.626-1.626H58.25c.929 0 1.626.697 1.626 1.626v3.252h.116zm0-13.123c0 .929-.697 1.626-1.626 1.626h-16.49c-.929 0-1.626-.697-1.626-1.626v-3.252c0-.929.697-1.626 1.626-1.626H58.25c.929 0 1.626.697 1.626 1.626v3.252h.116zm0-13.123c0 .929-.697 1.626-1.626 1.626h-16.49c-.929 0-1.626-.697-1.626-1.626V16.49c0-.929.697-1.626 1.626-1.626H58.25c.929 0 1.626.697 1.626 1.626v3.252h.116z" fill="#808191"/></svg>