<svg xmlns="http://www.w3.org/2000/svg" width="24" height="24" fill="none"  xmlns:v="https://vecta.io/nano"><path d="M21 18.023c0 .488-.396.884-.884.884H3.884c-.488 0-.884-.396-.884-.884s.396-.884.884-.884H3.9v-6.159C3.9 6.573 7.527 3 12 3s8.1 3.573 8.1 7.981v6.159h.016c.488 0 .884.396.884.884zM5.7 17.14h12.6v-6.159c0-3.431-2.821-6.213-6.3-6.213s-6.3 2.782-6.3 6.213v6.159zm4.276 3.616c-.245-.495.222-.965.774-.965h2.5c.552 0 1.019.47.774.965a2.21 2.21 0 0 1-.433.597 2.27 2.27 0 0 1-3.182 0 2.21 2.21 0 0 1-.433-.597z" fill="#808191"/></svg>