<svg xmlns="http://www.w3.org/2000/svg" xmlns:xlink="http://www.w3.org/1999/xlink" width="178" height="22" fill="none" xmlns:v="https://vecta.io/nano"><g fill="#00dff7"><path d="M3.988 1h3.904c2.325 0 3.488 1.046 3.488 3.138v13.724c0 2.092-1.163 3.138-3.488 3.138H3.988C1.663 21 .5 19.954.5 17.862V4.138C.5 2.046 1.663 1 3.988 1zM7.7 17.355V4.645c0-.338-.064-.56-.192-.666-.128-.127-.363-.19-.704-.19H5.108c-.363 0-.608.063-.736.19-.128.106-.192.328-.192.666v12.71c0 .338.064.57.192.697.128.106.373.159.736.159h1.696c.341 0 .576-.053.704-.159.128-.127.192-.359.192-.697zm16.375-6.688h-3.552V9.082c0-.338-.064-.56-.192-.666-.128-.127-.363-.19-.704-.19h-1.152c-.341 0-.576.063-.704.19-.128.106-.192.328-.192.666v8.273c0 .338.064.57.192.697.128.106.363.159.704.159h1.152c.341 0 .576-.053.704-.159.128-.127.192-.359.192-.697v-1.617h3.552v2.124c0 2.092-1.163 3.138-3.488 3.138h-3.136c-2.325 0-3.488-1.046-3.488-3.138V8.575c0-2.092 1.163-3.138 3.488-3.138h3.136c2.325 0 3.488 1.046 3.488 3.138v2.092zm5.596-5.23h3.392c2.304 0 3.456 1.046 3.456 3.138v5.674h-6.816v3.201c0 .338.053.571.16.697.128.106.373.159.736.159h1.472c.341 0 .576-.053.704-.159.128-.127.192-.359.192-.697v-1.173h3.52v1.585c0 2.092-1.163 3.138-3.488 3.138h-3.328c-2.325 0-3.488-1.046-3.488-3.138V8.575c0-2.092 1.163-3.138 3.488-3.138zm.032 6.498h3.328V8.956c0-.338-.064-.56-.192-.666-.128-.127-.363-.19-.704-.19h-1.536c-.341 0-.576.063-.704.19-.128.106-.192.328-.192.666v2.979z"/><use xlink:href="#B"/><path d="M57.324 5.437h.96c2.197 0 3.296 1.046 3.296 3.138V21h-3.648V9.082c0-.338-.064-.56-.192-.666-.128-.127-.363-.19-.704-.19h-.96c-.661 0-.992.349-.992 1.046V21h-3.616V5.437h3.584v1.426c.299-.951 1.056-1.426 2.272-1.426z"/><use xlink:href="#B" x="25.375"/><path d="M81.395 7.545h.386l1.261-2.847v2.847h.727V3.364h-.886l-1.296 3.068-1.296-3.068h-.886v4.182h.727V4.699l1.261 2.847zm-4.716 0h.727V4h1.273v-.636h-3.273V4h1.273v3.545z"/></g><g fill="#808191"><rect x="93.137" width="2" height="22" rx="1"/><path d="M114.849 5.528v11.12h-1.84V8.312l-3.216 8.336h-1.6l-3.232-8.336v8.336h-1.824V5.528h2.208l3.68 8.88 3.616-8.88h2.208zm8.93 8.672h-4.768l-.864 2.448h-1.952l4.16-11.12h2.096l4.144 11.12h-1.952l-.864-2.448zm-.512-1.408l-1.872-5.28-1.872 5.28h3.744zm10.619 3.856l-2.816-4.512h-1.296v4.512h-1.824V5.352h3.984c1.29 0 2.266.315 2.928.944.672.629 1.008 1.461 1.008 2.496 0 .885-.251 1.611-.752 2.176-.491.565-1.206.928-2.144 1.088l2.96 4.592h-2.048zm-4.112-5.808h2.016c1.472 0 2.208-.651 2.208-1.952 0-.619-.182-1.099-.544-1.44-.352-.352-.907-.528-1.664-.528h-2.016v3.92zm11.274.096l4.976 5.712H143.8l-4.464-5.232v5.232h-1.824V5.352h1.824v5.168l4.48-5.168h2.208l-4.976 5.584zm8.163-4.112v3.424h4.16v1.408h-4.16v3.504h4.64v1.488h-6.464V5.352h6.464v1.472h-4.64zm13.675-1.472v1.472h-3.152v9.824h-1.84V6.824h-3.136V5.352h8.128z"/></g><defs ><path id="B" d="M45.178 5.437h3.584V21h-3.648v-1.331c-.32.887-1.056 1.331-2.208 1.331h-.992c-2.176 0-3.264-1.046-3.264-3.138V8.575c0-2.092 1.088-3.138 3.264-3.138h.992c1.259 0 2.016.507 2.272 1.521V5.437zm-2.016 12.773h.96c.661 0 .992-.349.992-1.046V9.273c0-.697-.331-1.046-.992-1.046h-.96c-.341 0-.576.063-.704.19-.128.106-.192.328-.192.666v8.273c0 .338.064.57.192.697.128.106.363.159.704.159z"/></defs></svg>