<svg xmlns="http://www.w3.org/2000/svg" width="33" height="32" fill="none" xmlns:v="https://vecta.io/nano"><path fill-rule="evenodd" d="M28.844 16c0 6.817-5.527 12.344-12.344 12.344S4.156 22.817 4.156 16 9.683 3.656 16.5 3.656 28.844 9.183 28.844 16zm3.656 0c0 8.837-7.163 16-16 16S.5 24.837.5 16s7.163-16 16-16 16 7.163 16 16zm-8 1.914v-3.828c0-2.28-1.046-3.42-3.138-3.42h-9.724c-2.092 0-3.138 1.14-3.138 3.42v3.828c0 2.28 1.046 3.42 3.138 3.42h9.724c2.092 0 3.138-1.14 3.138-3.42zm-3.645-.188h-8.71c-.338 0-.57-.063-.697-.188-.106-.126-.159-.356-.159-.69v-1.663c0-.356.053-.596.159-.722.127-.125.359-.188.697-.188h8.71c.338 0 .56.063.666.188.127.126.19.366.19.722v1.663c0 .335-.063.565-.19.69-.106.125-.328.188-.666.188z" fill="#808191"/></svg>