<svg xmlns="http://www.w3.org/2000/svg" width="32" height="33" fill="none" xmlns:v="https://vecta.io/nano"><circle cx="16" cy="16.5" r="16" fill="#3f8cff"/><path fill-rule="evenodd" d="M25.3 16.5a9.3 9.3 0 1 1-18.6 0 9.3 9.3 0 1 1 18.6 0zm2.7 0c0 6.627-5.373 12-12 12s-12-5.373-12-12 5.373-12 12-12 12 5.373 12 12zm-8.353 4c1.569 0 2.353-.855 2.353-2.565v-2.871c0-1.71-.785-2.565-2.353-2.565h-7.293c-1.569 0-2.353.855-2.353 2.565v2.871c0 1.71.784 2.565 2.353 2.565h7.293zm.119-2.847c-.079.094-.246.141-.499.141h-6.532c-.254 0-.428-.047-.523-.141-.079-.094-.119-.267-.119-.518v-1.247c0-.267.04-.447.119-.541.095-.094.269-.141.523-.141h6.532c.254 0 .42.047.499.141.095.094.143.275.143.541v1.247c0 .251-.048.424-.143.518z" fill="#fff"/></svg>