<svg xmlns="http://www.w3.org/2000/svg" viewBox="213.041 192.365 16.542 15.796" xmlns:v="https://vecta.io/nano"><path d="M229.048 197.927l-4.959-.721-2.217-4.494c-.06-.123-.16-.223-.283-.283a.63.63 0 0 0-.838.283l-2.217 4.494-4.959.721a.62.62 0 0 0-.357.182c-.116.119-.179.279-.177.445s.07.324.189.44l3.588 3.498-.848 4.94a.62.62 0 0 0 .037.341c.044.108.117.202.211.27s.206.109.322.117.233-.016.336-.071l4.436-2.332 4.436 2.332c.121.064.261.086.396.063.34-.059.568-.381.51-.721l-.848-4.94 3.588-3.498c.098-.096.162-.221.182-.357.053-.342-.186-.658-.527-.709h-.001z" fill="#808191"/></svg>