<svg xmlns="http://www.w3.org/2000/svg" width="15" height="13" fill="none"  xmlns:v="https://vecta.io/nano"><path fill-rule="evenodd" d="M1.62 7.833C.518 7.836-.194 9.092.485 10.044c.973 1.363 2.737 2.456 5.681 2.456 4.563 0 8.226-3.719 7.714-8.113l.751-1.503c.521-1.042-.384-2.227-1.527-1.999l-.993.199c-.263-.139-.535-.244-.768-.32C10.89.617 10.341.5 9.833.5c-.913 0-1.701.234-2.327.704-.619.464-.968 1.075-1.159 1.635-.088.258-.147.518-.185.766-.354-.111-.715-.261-1.069-.445-.802-.415-1.451-.942-1.817-1.404-.614-.775-1.915-.717-2.371.29-.643 1.42-.467 3.102.111 4.462a6.57 6.57 0 0 0 .754 1.324l-.151.001zm4.546 3.334c-2.576 0-3.907-.933-4.596-1.898-.031-.043 0-.102.054-.103.701-.002 2.139-.035 3.087-.59.049-.029.038-.101-.016-.119-2.211-.743-3.467-3.891-2.575-5.86.02-.045.081-.051.112-.012C3.251 3.871 5.48 5.131 7.419 5.166c.042.001.074-.037.067-.079-.078-.507-.376-3.254 2.347-3.254.65 0 1.618.317 1.974.642a.07.07 0 0 0 .061.017l1.498-.3c.054-.011.098.046.073.095l-.929 1.858c-.007.013-.008.028-.006.042.651 3.658-2.345 6.978-6.337 6.978z" fill="#808191"/></svg>